<svg width="20" height="" viewBox="0 0 57 38" fill="none" xmlns="http://www.w3.org/2000/svg">
<path d="M56.2952 36.3718C56.3256 36.2779 56.3463 36.1788 56.3463 36.0745V1.66309C56.3463 1.55816 56.3256 1.45841 56.2945 1.36384C56.29 1.35089 56.2874 1.33793 56.2822 1.32498C56.2408 1.21422 56.1799 1.11447 56.1034 1.02703C56.0983 1.0212 56.0976 1.01407 56.0924 1.00824C56.0892 1.005 56.0853 1.00371 56.0821 1.00047C56.0005 0.913674 55.9039 0.84372 55.7958 0.791255C55.7874 0.787369 55.7809 0.782187 55.7725 0.7783C55.6701 0.732312 55.5587 0.706404 55.4415 0.698631C55.4298 0.697984 55.4188 0.695392 55.4072 0.695392C55.3961 0.694744 55.3864 0.692154 55.3754 0.692154H1.48295C1.47194 0.692154 1.46158 0.694744 1.45057 0.695392C1.4402 0.69604 1.42984 0.697984 1.41947 0.698631C1.30094 0.706404 1.1876 0.73296 1.08396 0.779596C1.07749 0.782187 1.0723 0.786721 1.06583 0.789312C0.955717 0.841777 0.857913 0.913026 0.775654 1.00112C0.772416 1.00435 0.768529 1.005 0.765291 1.00824C0.760109 1.01342 0.759462 1.02055 0.75428 1.02638C0.677851 1.11382 0.616318 1.21422 0.574865 1.32498C0.569684 1.33793 0.567093 1.35089 0.562559 1.36449C0.531469 1.45905 0.510742 1.5588 0.510742 1.66373V36.0758C0.510742 36.182 0.532116 36.2831 0.563854 36.3789C0.568388 36.3919 0.570979 36.4042 0.575513 36.4172C0.617614 36.5286 0.679794 36.629 0.756871 36.7164C0.761405 36.7216 0.7627 36.7281 0.767234 36.7332C0.77112 36.7378 0.776302 36.7404 0.780836 36.7449C0.812574 36.7779 0.84755 36.8071 0.883821 36.8356C0.900014 36.8479 0.914264 36.8628 0.931104 36.8744C0.973853 36.9042 1.01984 36.9282 1.06712 36.9502C1.07878 36.9554 1.08914 36.9638 1.1008 36.9684C1.21804 37.0182 1.34693 37.0467 1.4823 37.0467H55.3741C55.5095 37.0467 55.6384 37.0189 55.7556 36.9684C55.7738 36.9606 55.7906 36.9489 55.8081 36.9399C55.8482 36.9198 55.8884 36.8991 55.9253 36.8738C55.9448 36.8602 55.9622 36.8427 55.981 36.8278C56.0141 36.8013 56.0464 36.7747 56.0749 36.7443C56.0801 36.7391 56.086 36.7352 56.0911 36.73C56.0963 36.7242 56.0976 36.7164 56.1028 36.7106C56.1786 36.6238 56.2395 36.524 56.2809 36.4139C56.2874 36.3997 56.2906 36.3861 56.2952 36.3718ZM2.45451 3.86663L18.8072 18.8037L2.45451 33.86V3.86663ZM35.9708 18.0718C35.9034 18.1158 35.8322 18.1527 35.7758 18.2149C35.7544 18.2382 35.7473 18.2687 35.7285 18.2933L28.4289 24.9609L3.98699 2.63467H52.8707L35.9708 18.0718ZM20.2477 20.1192L27.7734 26.9935C27.9593 27.1632 28.1937 27.248 28.4289 27.248C28.664 27.248 28.8984 27.1632 29.0837 26.9935L36.5161 20.2047L52.8662 35.1036H3.97274L20.2477 20.1192ZM37.9573 18.8886L54.4032 3.86663V33.8755L37.9573 18.8886Z" fill="white"/>
</svg>
