<svg width="60" height="60" viewBox="0 0 60 60" fill="none" xmlns="http://www.w3.org/2000/svg">
<path d="M30.0002 0C13.4337 0 0 13.7712 0 30.7595C0 44.3499 8.59598 55.8799 20.516 59.9471C22.0153 60.2319 22.5658 59.2799 22.5658 58.4674C22.5658 57.7339 22.5379 55.3109 22.525 52.7406C14.1789 54.6014 12.4178 49.1114 12.4178 49.1114C11.0531 45.556 9.08681 44.6107 9.08681 44.6107C6.36489 42.7016 9.29199 42.7408 9.29199 42.7408C12.3045 42.9578 13.8908 45.9106 13.8908 45.9106C16.5665 50.613 20.909 49.2535 22.6209 48.4676C22.8902 46.4795 23.6676 45.1226 24.5256 44.3545C17.8621 43.5767 10.8574 40.9392 10.8574 29.153C10.8574 25.7947 12.0293 23.0508 13.9484 20.8967C13.6369 20.1219 12.6101 16.9934 14.239 12.7565C14.239 12.7565 16.7583 11.9298 22.4912 15.9095C24.8843 15.228 27.4507 14.8862 30.0002 14.8745C32.5498 14.8862 35.1182 15.228 37.5157 15.9095C43.2417 11.9298 45.7575 12.7565 45.7575 12.7565C47.3904 16.9934 46.3631 20.1219 46.0516 20.8967C47.9752 23.0508 49.1391 25.7947 49.1391 29.153C49.1391 40.9672 42.121 43.5685 35.4406 44.33C36.5167 45.2846 37.4755 47.1565 37.4755 50.0262C37.4755 54.1419 37.4407 57.4543 37.4407 58.4674C37.4407 59.286 37.9807 60.2451 39.5014 59.9431C51.4149 55.8712 60 44.3453 60 30.7595C60 13.7712 46.5682 0 30.0002 0ZM11.2361 43.8176C11.17 43.9704 10.9355 44.0162 10.7219 43.9113C10.5043 43.811 10.3821 43.6026 10.4526 43.4493C10.5172 43.2919 10.7522 43.2481 10.9693 43.3535C11.1874 43.4539 11.3116 43.6643 11.2361 43.8176ZM12.7117 45.1676C12.5687 45.3036 12.289 45.2405 12.0992 45.0255C11.903 44.8111 11.8662 44.5243 12.0113 44.3863C12.1588 44.2503 12.4301 44.3139 12.6268 44.5284C12.823 44.7454 12.8613 45.0301 12.7117 45.1676ZM13.7241 46.895C13.5403 47.0259 13.2397 46.9031 13.0539 46.6296C12.8701 46.3561 12.8701 46.028 13.0579 45.8966C13.2442 45.7652 13.5403 45.8834 13.7286 46.1549C13.9119 46.433 13.9119 46.761 13.7241 46.895ZM15.4363 48.8955C15.2718 49.0814 14.9216 49.0315 14.6652 48.7778C14.4029 48.5298 14.3299 48.1778 14.4948 47.9919C14.6613 47.8055 15.0135 47.8579 15.2718 48.1095C15.5321 48.3571 15.6116 48.7116 15.4363 48.8955ZM17.649 49.5708C17.5765 49.8118 17.2392 49.9213 16.8994 49.8189C16.5601 49.7135 16.338 49.4313 16.4066 49.1878C16.4771 48.9453 16.8159 48.8312 17.1582 48.9408C17.497 49.0457 17.7196 49.3258 17.649 49.5708ZM20.1673 49.8573C20.1757 50.111 19.8876 50.3213 19.5309 50.3259C19.1722 50.3341 18.8821 50.1288 18.8781 49.8792C18.8781 49.623 19.1598 49.4147 19.5184 49.4086C19.8751 49.4014 20.1673 49.6052 20.1673 49.8573ZM22.6411 49.7601C22.6839 50.0076 22.436 50.2618 22.0817 50.3296C21.7335 50.3947 21.4111 50.2419 21.3669 49.9964C21.3236 49.7428 21.576 49.4886 21.9238 49.4229C22.2785 49.3597 22.5959 49.5085 22.6411 49.7601Z" fill="#FF6500"/>
</svg>