<svg width="60" height="60" viewBox="0 0 60 60" fill="none" xmlns="http://www.w3.org/2000/svg">
<path d="M59.8705 46.489C59.7008 45.9777 58.6211 45.2244 56.6321 44.231C56.0933 43.9178 55.3256 43.4923 54.3321 42.9525C53.3378 42.4126 52.4352 41.9151 51.6261 41.4605C50.8154 41.006 50.0558 40.5657 49.3461 40.1402C49.2327 40.055 48.8776 39.8068 48.2811 39.3939C47.6839 38.9823 47.1803 38.6768 46.7676 38.4775C46.3558 38.2795 45.9507 38.1797 45.553 38.1797C44.9849 38.1797 44.2754 38.5848 43.4234 39.3939C42.5715 40.2041 41.79 41.0841 41.0801 42.0366C40.3701 42.9887 39.6171 43.8687 38.8225 44.6784C38.0267 45.4884 37.3728 45.8931 36.862 45.8931C36.6056 45.8931 36.2859 45.8216 35.9028 45.6805C35.5198 45.5386 35.2285 45.417 35.0285 45.3189C34.8302 45.2187 34.4901 45.0205 34.0068 44.7213C33.5226 44.4229 33.2534 44.2595 33.1966 44.231C29.3048 42.0714 25.9671 39.5998 23.1827 36.8166C20.3993 34.0318 17.9273 30.6943 15.7684 26.8021C15.74 26.7452 15.5763 26.4752 15.2782 25.9925C14.9797 25.5094 14.7807 25.1689 14.6813 24.9695C14.5819 24.7709 14.4612 24.4795 14.3194 24.0961C14.1776 23.7127 14.1064 23.3933 14.1064 23.1373C14.1064 22.6262 14.5113 21.9725 15.321 21.177C16.1306 20.3819 17.0115 19.6288 17.9628 18.9191C18.9149 18.2093 19.7949 17.4279 20.6048 16.5759C21.4144 15.7235 21.8191 15.0137 21.8191 14.4456C21.8191 14.0481 21.7197 13.6429 21.5211 13.2311C21.3223 12.8184 21.0169 12.3148 20.6048 11.718C20.1926 11.1214 19.944 10.7666 19.8587 10.6524C19.433 9.94274 18.9931 9.18288 18.5381 8.37318C18.083 7.56362 17.5863 6.66123 17.0463 5.66704C16.5067 4.67331 16.0809 3.90599 15.7681 3.36629C14.7743 1.37807 14.0216 0.298061 13.5101 0.12821C13.3112 0.0429853 13.0127 0 12.6154 0C11.8479 0 10.8467 0.141792 9.61101 0.426271C8.37488 0.710302 7.40219 1.00821 6.69189 1.3212C5.27144 1.91747 3.76591 3.65032 2.17485 6.51914C0.726041 9.189 0.00170898 11.8316 0.00170898 14.4448C0.00170898 15.2113 0.0514107 15.9569 0.150814 16.682C0.250218 17.4064 0.42783 18.2232 0.683802 19.1325C0.939326 20.0414 1.14545 20.7167 1.30127 21.1564C1.45724 21.5964 1.74843 22.3846 2.1747 23.5213C2.60038 24.6577 2.85635 25.3534 2.94157 25.6091C3.93576 28.3933 5.11472 30.8788 6.47816 33.0664C8.72145 36.7026 11.7828 40.4604 15.6604 44.3383C19.5382 48.2159 23.2953 51.2771 26.9317 53.5213C29.119 54.8846 31.6054 56.0634 34.3892 57.0584C34.645 57.1431 35.3407 57.3985 36.4767 57.8257C37.6131 58.2516 38.4016 58.5428 38.8416 58.6991C39.2818 58.8555 39.9571 59.0618 40.8653 59.3178C41.7755 59.5737 42.5916 59.7514 43.316 59.8515C44.0407 59.9496 44.7866 60.0002 45.5531 60.0002C48.1663 60.0002 50.809 59.2754 53.4793 57.8267C56.3478 56.2363 58.0802 54.7304 58.6768 53.3089C58.9905 52.5994 59.2877 51.6264 59.5717 50.3903C59.8566 49.1547 59.9981 48.1537 59.9981 47.3864C59.999 46.9874 59.9562 46.6896 59.8705 46.489Z" fill="#fff"/>
</svg>
